<?xml version="1.0" encoding="UTF-8" standalone="no" ?>
<!DOCTYPE svg PUBLIC "-//W3C//DTD SVG 1.1//EN" "http://www.w3.org/Graphics/SVG/1.1/DTD/svg11.dtd">
<svg xmlns="http://www.w3.org/2000/svg" xmlns:xlink="http://www.w3.org/1999/xlink" version="1.1" width="474" height="474" viewBox="0 0 474 474" xml:space="preserve">
<desc>Created with Fabric.js 3.6.3</desc>
<defs>
</defs>
<g transform="matrix(3.77 0 0 3.77 237.25 237.25)"  >
<g style=""   >
		<g transform="matrix(0.78 0 0 0.78 0.28 0)"  >
<path style="stroke: none; stroke-width: 1; stroke-dasharray: none; stroke-linecap: butt; stroke-dashoffset: 0; stroke-linejoin: miter; stroke-miterlimit: 4; fill: rgb(0,0,0); fill-rule: nonzero; opacity: 1;"  transform=" translate(-86.86, -256)" d="M 73.2 230.8 c 0.4 -0.9 0.4 -1.9 -0.1 -2.8 c -2.4 -3.9 -3.5 -7.5 -3.5 -10.7 c 0 -3.5 1.4 -6.6 4.1 -9.4 c 2.7 -2.7 6 -4.1 9.9 -4.1 c 3.9 0 7.2 1.4 9.9 4.1 c 2.7 2.7 4.1 6 4.1 9.7 c 0 3.3 -1.4 6.8 -4.3 10.5 c -0.7 0.9 -0.5 2.1 0.3 2.8 c 9.1 6.9 16.2 13.6 21.3 20.2 c 5.3 7 8 15 8 24.2 s -3.5 16.9 -10.4 23.3 c -6.9 6.4 -16.7 9.6 -29.5 9.6 c -5.8 0 -11.7 -1.3 -17.6 -3.8 c -5.3 -2.3 -9.4 -5.1 -12.4 -8.4 c -0.6 -0.6 -0.5 -1.5 0 -2.1 l 2.2 -2.3 c 0.5 -0.6 1.4 -0.6 2.1 -0.2 c 5 3.7 10.4 5.5 16.2 5.5 c 6.2 0 11.2 -1.7 15.2 -5 c 3.9 -3.3 5.9 -8.5 5.9 -15.6 c 0 -10.8 -3.9 -22.1 -11.6 -33.9 c -0.4 -0.5 -1.1 -0.6 -1.5 -0.1 l -25.4 31.8 c -0.7 0.9 -2 1 -2.8 0.2 l -1.8 -1.6 c -0.7 -0.6 -0.9 -1.7 -0.4 -2.5 c 8.5 -13.7 15.9 -26.9 22.1 -39.4 z" stroke-linecap="round" />
</g>
		<g transform="matrix(0.78 0 0 0.78 0 0)"  >
<path style="stroke: none; stroke-width: 1; stroke-dasharray: none; stroke-linecap: butt; stroke-dashoffset: 0; stroke-linejoin: miter; stroke-miterlimit: 4; fill: rgb(0,0,0); fill-rule: nonzero; opacity: 1;"  transform=" translate(-86.5, -256)" d="M 102.3 177 C 45.6 166.2 -3.3 215 7.5 271.8 c 6.1 32 31.2 57.2 63.2 63.2 c 56.8 10.8 105.6 -38.1 94.8 -94.8 c -6 -32 -31.2 -57.2 -63.2 -63.2 z M 86.2 319.2 c -34.6 -0.2 -62.6 -28.2 -62.8 -62.8 c -0.2 -34.8 28.7 -63.7 63.5 -63.5 c 34.6 0.2 62.6 28.2 62.8 62.8 c 0.2 34.8 -28.7 63.7 -63.5 63.5 z" stroke-linecap="round" />
</g>
		<g transform="matrix(1 0 0 1 49.09 -12.11)"  >
<line style="stroke: rgb(0,0,0); stroke-width: 2; stroke-dasharray: none; stroke-linecap: butt; stroke-dashoffset: 0; stroke-linejoin: miter; stroke-miterlimit: 4; fill: rgb(0,0,0); fill-rule: nonzero; opacity: 1;"  x1="0" y1="0" x2="0" y2="0" />
</g>
</g>
</g>
</svg>