<?xml version="1.0" encoding="UTF-8" standalone="no" ?>
<!DOCTYPE svg PUBLIC "-//W3C//DTD SVG 1.1//EN" "http://www.w3.org/Graphics/SVG/1.1/DTD/svg11.dtd">
<svg xmlns="http://www.w3.org/2000/svg" xmlns:xlink="http://www.w3.org/1999/xlink" version="1.1" width="470" height="470" viewBox="0 0 470 470" xml:space="preserve">
<desc>Created with Fabric.js 3.6.3</desc>
<defs>
</defs>
<g transform="matrix(3.58 0 0 3.58 235.5 235.5)"  >
<g style=""   >
		<g transform="matrix(1 0 0 1 3.4 -1.05)"  >
<path style="stroke: none; stroke-width: 1; stroke-dasharray: none; stroke-linecap: butt; stroke-dashoffset: 0; stroke-linejoin: miter; stroke-miterlimit: 4; fill: rgb(0,0,0); fill-rule: nonzero; opacity: 1;"  transform=" translate(-75, -254.95)" d="M 80.4 241 c 0 -0.5 -0.1 -1.3 -0.4 -2.3 c -0.2 -1 -0.5 -2.2 -0.8 -3.6 c -0.3 -1.3 -0.7 -2.8 -1.1 -4.3 c -0.4 -1.5 -0.8 -3 -1.1 -4.5 c -0.3 -1.5 -0.6 -2.8 -0.8 -4.1 c -0.2 -1.3 -0.4 -2.3 -0.4 -3.2 c 0 -1.1 0.3 -2 0.9 -2.6 c 0.6 -0.7 1.4 -1.2 2.3 -1.6 c 0.9 -0.4 1.9 -0.6 3 -0.8 c 1.1 -0.1 2.1 -0.2 3.1 -0.2 c 1.2 0 2.4 0.3 3.6 1 c 1.2 0.7 1.9 1.9 2.4 3.6 c 0.5 1.8 1 3.7 1.3 5.5 c 0.4 1.9 0.7 3.7 1 5.4 s 0.6 3.5 0.8 5.1 c 0.3 1.6 0.5 3.2 0.8 4.6 c 0.3 1.1 0.6 2 1.1 2.7 c 0.4 0.7 1 1.2 1.6 1.5 c 0.6 0.4 1.3 0.6 2 0.7 c 0.7 0.1 1.5 0.1 2.4 0.1 c 0.9 0 1.9 -0.1 3 -0.3 c 1.1 -0.2 2.1 -0.3 3.2 -0.3 c 0.7 0 1.3 0.1 1.9 0.3 c 0.6 0.2 1.2 0.6 1.7 1.1 c 0.5 0.5 0.9 1.3 1.2 2.2 c 0.3 0.9 0.5 2.1 0.5 3.6 c 0 1.2 -0.2 2.2 -0.7 3.1 c -0.5 0.8 -1.4 1.4 -2.7 1.7 l -2.5 0.6 c -0.8 0.1 -1.5 0.2 -2.2 0.3 c -0.7 0.1 -1.5 0.2 -2.6 0.2 c -2.2 0.2 -3.3 1.2 -3.3 2.9 c 0 0.1 0.1 0.8 0.3 1.9 c 0.2 1.1 0.4 2.5 0.7 4.2 c 0.3 1.7 0.6 3.5 1 5.5 s 0.7 3.9 1.1 5.7 c 0.4 1.8 0.7 3.5 1 4.9 c 0.3 1.4 0.5 2.5 0.6 3.1 c 0.2 1 0.4 1.8 0.6 2.4 c 0.1 0.6 0.2 1.3 0.2 2.3 c 0 0.8 -0.2 1.5 -0.6 2.2 c -0.4 0.7 -1 1.4 -1.9 1.9 c -0.8 0.6 -1.8 1 -3 1.4 c -1.2 0.4 -2.5 0.5 -4 0.5 c -1.6 0 -2.8 -0.5 -3.6 -1.5 c -0.7 -1 -1.2 -2.2 -1.5 -3.5 c -0.6 -2.4 -1.2 -5 -1.7 -7.5 c -0.5 -2.6 -1.1 -5.1 -1.6 -7.7 s -1 -5 -1.4 -7.4 c -0.4 -2.4 -0.9 -4.7 -1.2 -6.9 c -0.2 -1 -0.7 -1.8 -1.3 -2.3 c -0.6 -0.5 -1.4 -0.7 -2.3 -0.7 c -3.2 0 -6.4 0.1 -9.6 0.3 c -3.2 0.2 -6.4 0.4 -9.5 0.5 c -1.1 0.1 -1.9 0.4 -2.5 1.1 c -0.6 0.6 -0.9 1.4 -0.9 2.4 c 0 2.2 0 4.4 0.1 6.6 c 0 2.2 0.1 4.4 0.1 6.6 c 0 2.6 0 5.2 -0.1 8 c -0.1 2.7 -0.2 5.4 -0.3 7.9 c -0.1 0.9 -0.4 1.7 -0.8 2.3 c -0.4 0.6 -1 1.1 -1.7 1.5 c -0.7 0.4 -1.5 0.6 -2.3 0.8 c -0.9 0.1 -1.8 0.2 -2.6 0.2 c -2.2 0 -3.9 -0.4 -5.1 -1.1 c -1.2 -0.7 -1.8 -2 -1.8 -3.7 c 0 -2.6 0.1 -5.4 0.2 -8.2 c 0.1 -2.9 0.2 -5.8 0.2 -8.7 c 0 -2 0 -3.9 -0.1 -5.7 c 0 -1.9 -0.1 -3.8 -0.1 -5.7 c 0 -0.9 -0.2 -1.6 -0.6 -2 c -0.4 -0.4 -0.9 -0.8 -1.4 -1.1 s -1.2 -0.6 -1.9 -0.8 c -0.7 -0.3 -1.3 -0.6 -1.9 -1.2 c -0.6 -0.5 -1 -1.3 -1.4 -2.3 c -0.4 -1 -0.6 -2.3 -0.6 -4.1 c 0 -0.9 0.2 -1.7 0.5 -2.2 c 0.4 -0.5 0.8 -1 1.3 -1.3 c 0.5 -0.3 1.1 -0.6 1.7 -0.8 c 0.6 -0.2 1.2 -0.5 1.7 -0.8 c 0.5 -0.3 1 -0.7 1.3 -1.2 c 0.4 -0.5 0.5 -1.2 0.5 -2.1 c 0 -0.6 0 -1.2 -0.1 -2 c 0 -0.8 -0.1 -1.5 -0.1 -2.2 c 0 -0.7 -0.1 -1.3 -0.1 -1.9 c 0 -0.5 -0.1 -0.9 -0.1 -1.1 c 0 -1.6 0.2 -2.9 0.7 -3.8 c 0.4 -1 1 -1.7 1.7 -2.2 c 0.7 -0.5 1.4 -0.8 2.2 -1 c 0.8 -0.2 1.6 -0.2 2.4 -0.2 c 2.8 0 4.8 0.5 5.9 1.6 c 1.1 1.1 1.7 2.6 1.8 4.6 l 0.3 7.4 c 0.1 1.1 0.4 2 0.9 2.6 c 0.5 0.6 1.4 0.9 2.5 0.9 l 16 -0.6 c 1.4 -0.1 2.2 -0.5 2.6 -1.1 c 0.2 -0.8 0.4 -1.8 0.4 -3.1 z" stroke-linecap="round" />
</g>
		<g transform="matrix(1 0 0 1 0 0)"  >
<path style="stroke: none; stroke-width: 1; stroke-dasharray: none; stroke-linecap: butt; stroke-dashoffset: 0; stroke-linejoin: miter; stroke-miterlimit: 4; fill: rgb(0,0,0); fill-rule: nonzero; opacity: 1;"  transform=" translate(-71.6, -256)" d="M 71.6 190.4 C 35.4 190.4 6 219.8 6 256 s 29.4 65.6 65.6 65.6 s 65.6 -29.4 65.6 -65.6 s -29.4 -65.6 -65.6 -65.6 z m 0 117 c -28.4 0 -51.4 -23 -51.4 -51.4 s 23 -51.4 51.4 -51.4 s 51.4 23 51.4 51.4 s -23 51.4 -51.4 51.4 z" stroke-linecap="round" />
</g>
</g>
</g>
</svg>