<?xml version="1.0" encoding="UTF-8"?>
<svg xmlns="http://www.w3.org/2000/svg" xmlns:xlink="http://www.w3.org/1999/xlink" t="1664518175606" class="icon" viewBox="0 0 1024 1024" version="1.1" p-id="1468" width="200" height="200">
<defs>
<linearGradient id="greenGradient" fy='90%'>
<!-- <stop offset="0" stop-color="#f7b91c"/>
<stop offset="25%" stop-color="#D62229"/>
<stop offset="50%" stop-color="#f7b91c"/>
<stop offset="75%" stop-color="#df5b23"/>
<stop offset="100%" stop-color="#f7b91c"/> -->
<stop offset="0%"  stop-color="#f7b91c" >
          <animate attributeName="offset" from='90%' to='0%' repeatCount="indefinite" dur="1s" begin="0" fill="freeze"></animate>
     </stop>
     <stop offset="100%"  stop-color="#f7b91c">
          <animate attributeName="offset" repeatCount="indefinite" dur="1s" begin="0" fill="freeze"></animate>
     </stop>
     <!-- <animate attributeName='fy' dur='700ms' from='90%' to='0%' repeatCount='indefinite'/> -->
</linearGradient>
</defs>

<defs>
  
<radialGradient id='smallGradient' fy='90%'>
    
<stop offset = '0%' stop-color = '#f4c708' ></stop>
    
<stop offset='100%' stop-color='#f7e69a'></stop>
    
<animate attributeName='fy' dur='700ms' from='90%' to='0%' repeatCount='indefinite'/>
  
</radialGradient>
  
<radialGradient id='largeGradient' fy='90%'>
    
<stop offset='0%' stop-color='#ff8806'></stop>
    
<stop offset='100%' stop-color='#d9574a'></stop>
    
<animateat tributeName='fy' dur='700ms' from='90%' to='0%' repeatCount='indefinite'/>
  
</radialGradient>
 
</defs> 

<path fill="url(#greenGradient)" d="M512 0C229.24 0 0 229.24 0 512s229.24 512 512 512 512-229.24 512-512S794.76 0 512 0z m303 503.3c-3.74 6.54-10.86 10.94-21.32 13.18l-20.2 4.48c-6.36 1.12-12.26 1.96-17.68 2.52s-12.26 1.22-20.48 1.96c-17.58 1.88-26.38 9.54-26.38 23 0 1.12 0.74 6.18 2.24 15.14 1.5 8.98 3.46 20.12 5.9 33.38 2.42 13.28 5.14 27.88 8.14 43.76 2.98 15.9 5.9 31.14 8.7 45.72 2.8 14.58 5.34 27.58 7.58 39 2.24 11.42 3.92 19.56 5.04 24.4 1.86 8.24 3.36 14.58 4.48 19.08s1.68 10.66 1.68 18.52c0 5.98-1.68 11.88-5.04 17.68-3.36 5.8-8.32 10.94-14.86 15.42-6.54 4.48-14.5 8.14-23.84 10.94-9.36 2.8-20.02 4.2-31.98 4.2-13.1 0-22.54-4.02-28.34-12.06-5.8-8.04-9.82-17.3-12.06-27.78-4.86-19.44-9.46-39.46-13.74-60.04a4306.74 4306.74 0 0 1-12.34-61.16c-3.92-20.2-7.68-39.92-11.22-59.2-3.56-19.26-6.82-37.68-9.82-55.26-1.88-8.22-5.24-14.3-10.1-18.24-4.86-3.92-11.04-5.9-18.52-5.9-25.44 0-50.98 0.84-76.58 2.52-25.62 1.68-50.78 3.08-75.46 4.2-8.6 0.76-15.34 3.56-20.2 8.42s-7.3 11.22-7.3 19.08c0 17.58 0.18 34.98 0.56 52.18 0.36 17.2 0.56 34.78 0.56 52.74 0 20.58-0.28 41.72-0.84 63.4-0.56 21.7-1.4 42.64-2.52 62.84-0.76 7.48-2.9 13.66-6.46 18.52-3.56 4.86-8.04 8.78-13.46 11.78-5.42 2.98-11.6 5.04-18.52 6.18-6.92 1.12-13.94 1.68-21.04 1.68-17.58 0-31.24-2.9-40.96-8.7-9.74-5.8-14.58-15.62-14.58-29.46 0-20.94 0.56-42.82 1.68-65.64 1.12-22.82 1.68-45.82 1.68-69.02 0-15.72-0.2-30.94-0.56-45.72-0.38-14.78-0.56-30.02-0.56-45.72 0-7.1-1.6-12.44-4.76-16-3.18-3.56-7.02-6.46-11.5-8.7-4.48-2.24-9.54-4.4-15.14-6.46a45.076 45.076 0 0 1-15.14-9.26c-4.48-4.12-8.32-10.1-11.5-17.96-3.18-7.86-4.76-18.7-4.76-32.54 0-7.48 1.4-13.38 4.2-17.68 2.8-4.3 6.36-7.76 10.66-10.38 4.3-2.62 8.88-4.76 13.74-6.46 4.86-1.68 9.44-3.84 13.74-6.46 4.3-2.62 7.86-5.9 10.66-9.82s4.2-9.62 4.2-17.12c0-4.48-0.2-9.82-0.56-16-0.38-6.18-0.76-12.06-1.12-17.68-0.38-5.62-0.76-10.56-1.12-14.86-0.38-4.3-0.56-7.2-0.56-8.7 0-12.72 1.78-22.9 5.34-30.58 3.56-7.66 7.94-13.46 13.18-17.4 5.24-3.92 11.12-6.54 17.68-7.86 6.54-1.3 12.8-1.96 18.8-1.96 22.44 0 38.06 4.2 46.86 12.62 8.78 8.42 13.56 20.68 14.3 36.76l2.24 58.92c0.74 8.98 3.18 15.8 7.3 20.48 4.12 4.68 10.84 7.02 20.2 7.02l127.36-4.48c10.84-0.74 17.86-3.74 21.04-8.98 3.18-5.24 4.76-13.08 4.76-23.56 0-4.12-0.94-10.28-2.8-18.52-1.88-8.22-4.12-17.68-6.74-28.34a1243.88 1243.88 0 0 0-8.98-34.22c-3.36-12.16-6.36-24.04-8.98-35.62-2.62-11.58-4.86-22.44-6.74-32.54-1.88-10.1-2.8-18.52-2.8-25.24 0-8.6 2.42-15.62 7.3-21.04 4.86-5.42 11.02-9.62 18.52-12.62 7.48-2.98 15.52-5.04 24.12-6.18 8.6-1.12 16.84-1.68 24.68-1.68 9.72 0 19.16 2.72 28.34 8.14 9.16 5.42 15.44 15.06 18.8 28.9a514.86 514.86 0 0 1 10.38 44.04c2.8 14.78 5.34 29.18 7.58 43.2s4.4 27.6 6.46 40.68c2.06 13.1 4.2 25.24 6.46 36.48 2.24 8.98 5.14 16.08 8.7 21.32 3.56 5.24 7.86 9.26 12.9 12.06 5.04 2.8 10.46 4.58 16.28 5.34 5.8 0.76 12.06 1.12 18.8 1.12 7.48 0 15.52-0.74 24.12-2.24 8.6-1.5 17.02-2.24 25.24-2.24 5.24 0 10.38 0.84 15.44 2.52 5.04 1.68 9.62 4.68 13.74 8.98 4.12 4.3 7.38 10.2 9.82 17.68 2.42 7.48 3.64 17.02 3.64 28.62 0 9.74-1.88 17.86-5.62 24.4z" p-id="1469"/></svg>